Coordinates
version=1
nRows=43
nColumns=12
inDegrees=yes

Units are S.I. units (second, meters, Newtons, ...)
Angles are in degrees

endheader
time	SC_y	SC_z	SC_x	AC_y	AC_z	AC_x	GH_y	GH_z	GH_yy	EL_x	PS_y
       0.0              -50.86          4.672          63.36          58.71         -8.923          15.64         -162.1          64.99         -116.2          68.57          65.75
   0.04824              -50.86          4.677          63.36          58.71         -8.922          15.63         -162.1          64.99         -116.2          68.57          65.76
   0.09649              -50.86          4.681          63.36           58.7         -8.921          15.63         -162.0          64.98         -116.3          68.56          65.77
    0.1447              -50.86          4.686          63.36           58.7          -8.92          15.62         -162.0          64.97         -116.3          68.55          65.79
     0.193              -50.86          4.692          63.36           58.7         -8.919          15.62         -161.9          64.97         -116.3          68.54           65.8
    0.2412              -50.86          4.698          63.36          58.69         -8.918          15.61         -161.9          64.96         -116.3          68.53          65.82
    0.2895              -50.86          4.704          63.36          58.69         -8.917           15.6         -161.8          64.96         -116.3          68.52          65.83
    0.3377              -50.86           4.71          63.36          58.69         -8.916           15.6         -161.7          64.95         -116.3          68.51          65.85
     0.386              -50.86          4.718          63.36          58.68         -8.915          15.59         -161.7          64.94         -116.3          68.49          65.87
    0.4342              -50.86          4.725          63.36          58.68         -8.913          15.58         -161.6          64.93         -116.3          68.48          65.89
    0.4824              -50.86          4.733          63.36          58.67         -8.912          15.57         -161.5          64.92         -116.4          68.47          65.92
    0.5307              -50.86          4.742          63.36          58.67         -8.911          15.56         -161.4          64.91         -116.4          68.45          65.94
    0.5789              -50.86          4.752          63.36          58.66         -8.909          15.56         -161.3           64.9         -116.4          68.44          65.97
    0.6272              -50.86          4.762          63.36          58.65         -8.907          15.54         -161.2          64.89         -116.4          68.42           66.0
    0.6754              -50.86          4.773          63.36          58.65         -8.905          15.53         -161.1          64.88         -116.4           68.4          66.03
    0.7237              -50.86          4.785          63.36          58.64         -8.903          15.52         -161.0          64.87         -116.5          68.38          66.06
    0.7719              -50.86          4.798          63.36          58.63         -8.901          15.51         -160.9          64.85         -116.5          68.35           66.1
    0.8201              -50.86          4.812          63.36          58.62         -8.899          15.49         -160.8          64.84         -116.5          68.33          66.14
    0.8684              -50.86          4.828          63.36          58.61         -8.896          15.48         -160.6          64.82         -116.5           68.3          66.18
    0.9166              -50.87          4.845          63.36           58.6         -8.893          15.46         -160.4           64.8         -116.6          68.27          66.23
    0.9649              -50.87          4.863          63.36          58.59          -8.89          15.44         -160.3          64.78         -116.6          68.24          66.28
     1.013              -50.87          4.884          63.36          58.58         -8.886          15.42         -160.1          64.76         -116.7           68.2          66.34
     1.061              -50.87          4.906          63.36          58.56         -8.882           15.4         -159.8          64.73         -116.7          68.16           66.4
      1.11              -50.87          4.931          63.35          58.55         -8.878          15.37         -159.6           64.7         -116.8          68.12          66.47
     1.158              -50.87          4.959          63.35          58.53         -8.873          15.34         -159.3          64.67         -116.8          68.07          66.55
     1.206              -50.87          4.991          63.35          58.51         -8.868          15.31         -159.0          64.64         -116.9          68.02          66.64
     1.254              -50.87          5.025          63.35          58.49         -8.862          15.28         -158.7           64.6         -116.9          67.96          66.74
     1.303              -50.88          5.065          63.35          58.46         -8.855          15.24         -158.3          64.55         -117.0          67.89          66.85
     1.351              -50.88          5.109          63.35          58.44         -8.847          15.19         -157.9          64.51         -117.1          67.81          66.97
     1.399              -50.88          5.159          63.35           58.4         -8.839          15.14         -157.4          64.45         -117.2          67.72          67.11
     1.447              -50.88          5.217          63.35          58.37         -8.829          15.08         -156.8          64.39         -117.3          67.62          67.27
     1.496              -50.89          5.283          63.35          58.33         -8.817          15.01         -156.2          64.31         -117.5          67.51          67.46
     1.544              -50.89          5.359          63.34          58.28         -8.804          14.94         -155.5          64.23         -117.6          67.37          67.67
     1.592              -50.89          5.448          63.34          58.22         -8.789          14.85         -154.6          64.13         -117.8          67.22          67.92
      1.64               -50.9          5.551          63.34          58.16         -8.771          14.74         -153.6          64.01         -118.0          67.04          68.21
     1.689               -50.9          5.673          63.34          58.08          -8.75          14.62         -152.4          63.88         -118.2          66.83          68.55
     1.737              -50.91          5.818          63.33          57.99         -8.725          14.47         -151.0          63.72         -118.5          66.57          68.96
     1.785              -50.92          5.992          63.33          57.88         -8.695          14.29         -149.4          63.53         -118.9          66.27          69.44
     1.833              -50.93          6.202          63.32          57.75         -8.659          14.08         -147.3          63.29         -119.3           65.9          70.03
     1.882              -50.94          6.459          63.32          57.59         -8.615          13.82         -144.8          63.01         -119.8          65.45          70.75
      1.93              -50.95          6.777          63.31          57.39          -8.56          13.49         -141.8          62.65         -120.4           64.9          71.64
     1.978              -50.97          7.172           63.3          57.14         -8.492          13.09         -138.0          62.22         -121.2          64.21          72.75
     2.026              -50.99           7.67          63.29          56.83         -8.407          12.58         -133.1          61.66         -122.2          63.34          74.14
